<svg width="1200" height="630" viewBox="0 0 1200 630" fill="none" xmlns="http://www.w3.org/2000/svg">
  <rect width="1200" height="630" fill="#111827"/>
  <rect x="56" y="56" width="1088" height="518" rx="36" fill="url(#paint0_linear)"/>
  <circle cx="148" cy="154" r="54" fill="#FDBA74"/>
  <path d="M131 180V130H149C164.464 130 177 142.536 177 158C177 173.464 164.464 186 149 186H131V180Z" fill="#9A3412"/>
  <path d="M147 148C167.987 148 185 165.013 185 186V194H109V186C109 165.013 126.013 148 147 148Z" fill="#EA580C"/>
  <text x="230" y="180" fill="white" font-family="Arial, Helvetica, sans-serif" font-size="74" font-weight="700">ChantLive</text>
  <text x="96" y="302" fill="#111827" font-family="Arial, Helvetica, sans-serif" font-size="64" font-weight="700">Real-time chants for demonstrations</text>
  <text x="96" y="380" fill="#1F2937" font-family="Arial, Helvetica, sans-serif" font-size="32">
    Create demonstrations, share QR codes, and push live call-and-response updates
  </text>
  <text x="96" y="424" fill="#1F2937" font-family="Arial, Helvetica, sans-serif" font-size="32">
    to every participant’s phone instantly.
  </text>
  <rect x="96" y="472" width="308" height="64" rx="18" fill="#111827"/>
  <text x="126" y="514" fill="white" font-family="Arial, Helvetica, sans-serif" font-size="30" font-weight="700">chantlive.online</text>
  <defs>
    <linearGradient id="paint0_linear" x1="56" y1="56" x2="1144" y2="574" gradientUnits="userSpaceOnUse">
      <stop stop-color="#FED7AA"/>
      <stop offset="1" stop-color="#FB923C"/>
    </linearGradient>
  </defs>
</svg>
